{
    "asset" : {
        "generator" : "Khronos glTF Blender I/O v1.6.16",
        "version" : "2.0"
    },
    "scene" : 0,
    "scenes" : [
        {
            "name" : "Scene",
            "nodes" : [
                0
            ]
        }
    ],
    "nodes" : [
        {
            "mesh" : 0,
            "name" : "Cylinder",
            "scale" : [
                0.1686496138572693,
                0.1686496138572693,
                0.1686496138572693
            ]
        }
    ],
    "materials" : [
        {
            "doubleSided" : true,
            "name" : "Material.004",
            "pbrMetallicRoughness" : {
                "baseColorFactor" : [
                    0.7991029620170593,
                    0.038204375654459,
                    0.0802198275923729,
                    1
                ],
                "metallicFactor" : 0,
                "roughnessFactor" : 0.5
            }
        },
        {
            "doubleSided" : true,
            "name" : "Material",
            "pbrMetallicRoughness" : {
                "metallicFactor" : 0,
                "roughnessFactor" : 0.4000000059604645
            }
        },
        {
            "doubleSided" : true,
            "name" : "Material.003",
            "pbrMetallicRoughness" : {
                "baseColorFactor" : [
                    0.22696588933467865,
                    0.6104958057403564,
                    0.004391442518681288,
                    1
                ],
                "metallicFactor" : 0,
                "roughnessFactor" : 0.5
            }
        },
        {
            "doubleSided" : true,
            "name" : "Material.002",
            "pbrMetallicRoughness" : {
                "baseColorFactor" : [
                    0.027873467653989792,
                    0.23839758336544037,
                    0.8148468732833862,
                    1
                ],
                "metallicFactor" : 0,
                "roughnessFactor" : 0.5
            }
        }
    ],
    "meshes" : [
        {
            "name" : "Cylinder",
            "primitives" : [
                {
                    "attributes" : {
                        "POSITION" : 0,
                        "NORMAL" : 1,
                        "TEXCOORD_0" : 2
                    },
                    "indices" : 3,
                    "material" : 0
                },
                {
                    "attributes" : {
                        "POSITION" : 4,
                        "NORMAL" : 5,
                        "TEXCOORD_0" : 6
                    },
                    "indices" : 7,
                    "material" : 1
                },
                {
                    "attributes" : {
                        "POSITION" : 8,
                        "NORMAL" : 9,
                        "TEXCOORD_0" : 10
                    },
                    "indices" : 11,
                    "material" : 2
                },
                {
                    "attributes" : {
                        "POSITION" : 12,
                        "NORMAL" : 13,
                        "TEXCOORD_0" : 14
                    },
                    "indices" : 15,
                    "material" : 3
                }
            ]
        }
    ],
    "accessors" : [
        {
            "bufferView" : 0,
            "componentType" : 5126,
            "count" : 168,
            "max" : [
                6.941171169281006,
                0.5460694432258606,
                0.6305475234985352
            ],
            "min" : [
                -6.941171169281006,
                -0.5460692644119263,
                -0.6305464506149292
            ],
            "type" : "VEC3"
        },
        {
            "bufferView" : 1,
            "componentType" : 5126,
            "count" : 168,
            "type" : "VEC3"
        },
        {
            "bufferView" : 2,
            "componentType" : 5126,
            "count" : 168,
            "type" : "VEC2"
        },
        {
            "bufferView" : 3,
            "componentType" : 5123,
            "count" : 264,
            "type" : "SCALAR"
        },
        {
            "bufferView" : 4,
            "componentType" : 5126,
            "count" : 167,
            "max" : [
                1,
                1,
                1
            ],
            "min" : [
                -0.9999998211860657,
                -1,
                -1
            ],
            "type" : "VEC3"
        },
        {
            "bufferView" : 5,
            "componentType" : 5126,
            "count" : 167,
            "type" : "VEC3"
        },
        {
            "bufferView" : 6,
            "componentType" : 5126,
            "count" : 167,
            "type" : "VEC2"
        },
        {
            "bufferView" : 7,
            "componentType" : 5123,
            "count" : 792,
            "type" : "SCALAR"
        },
        {
            "bufferView" : 8,
            "componentType" : 5126,
            "count" : 168,
            "max" : [
                0.6305480599403381,
                0.5460694432258606,
                6.941171169281006
            ],
            "min" : [
                -0.6305469870567322,
                -0.5460692644119263,
                -6.941171169281006
            ],
            "type" : "VEC3"
        },
        {
            "bufferView" : 9,
            "componentType" : 5126,
            "count" : 168,
            "type" : "VEC3"
        },
        {
            "bufferView" : 10,
            "componentType" : 5126,
            "count" : 168,
            "type" : "VEC2"
        },
        {
            "bufferView" : 11,
            "componentType" : 5123,
            "count" : 264,
            "type" : "SCALAR"
        },
        {
            "bufferView" : 12,
            "componentType" : 5126,
            "count" : 84,
            "max" : [
                0.6305474042892456,
                6.941171169281006,
                0.5460694432258606
            ],
            "min" : [
                -0.6305454969406128,
                0.36134231090545654,
                -0.5460692644119263
            ],
            "type" : "VEC3"
        },
        {
            "bufferView" : 13,
            "componentType" : 5126,
            "count" : 84,
            "type" : "VEC3"
        },
        {
            "bufferView" : 14,
            "componentType" : 5126,
            "count" : 84,
            "type" : "VEC2"
        },
        {
            "bufferView" : 15,
            "componentType" : 5123,
            "count" : 132,
            "type" : "SCALAR"
        }
    ],
    "bufferViews" : [
        {
            "buffer" : 0,
            "byteLength" : 2016,
            "byteOffset" : 0
        },
        {
            "buffer" : 0,
            "byteLength" : 2016,
            "byteOffset" : 2016
        },
        {
            "buffer" : 0,
            "byteLength" : 1344,
            "byteOffset" : 4032
        },
        {
            "buffer" : 0,
            "byteLength" : 528,
            "byteOffset" : 5376
        },
        {
            "buffer" : 0,
            "byteLength" : 2004,
            "byteOffset" : 5904
        },
        {
            "buffer" : 0,
            "byteLength" : 2004,
            "byteOffset" : 7908
        },
        {
            "buffer" : 0,
            "byteLength" : 1336,
            "byteOffset" : 9912
        },
        {
            "buffer" : 0,
            "byteLength" : 1584,
            "byteOffset" : 11248
        },
        {
            "buffer" : 0,
            "byteLength" : 2016,
            "byteOffset" : 12832
        },
        {
            "buffer" : 0,
            "byteLength" : 2016,
            "byteOffset" : 14848
        },
        {
            "buffer" : 0,
            "byteLength" : 1344,
            "byteOffset" : 16864
        },
        {
            "buffer" : 0,
            "byteLength" : 528,
            "byteOffset" : 18208
        },
        {
            "buffer" : 0,
            "byteLength" : 1008,
            "byteOffset" : 18736
        },
        {
            "buffer" : 0,
            "byteLength" : 1008,
            "byteOffset" : 19744
        },
        {
            "buffer" : 0,
            "byteLength" : 672,
            "byteOffset" : 20752
        },
        {
            "buffer" : 0,
            "byteLength" : 264,
            "byteOffset" : 21424
        }
    ],
    "buffers" : [
        {
            "byteLength" : 21688,
            "uri" : "data:application/octet-stream;base64,"
        }
    ]
}
